<svg xmlns="http://www.w3.org/2000/svg" width="480pt" height="290pt" viewBox="0 0 480 290" version="1.1" xmlns:xlink="http://www.w3.org/1999/xlink">
  <g id="surface2" transform="matrix(0.7449578949036975,-0.6671114860506085,0.6671114860506085,0.7449578949036975,-9.995705549340949,191.0504619006205)" data-tpl_matrix="1,0,0,1,-0.5,-0.5">
    <path style="stroke:none;fill-rule:evenodd;fill:rgb(23.137255%,69.803922%,47.843137%);fill-opacity:1" d="M 251.898438 167.949219 C 251.199219 168.25 245.800781 167.582031 235.699219 165.949219 C 225.566406 164.316406 214.816406 159.917969 203.449219 152.75 C 193.285156 145.050781 189.332031 138.382812 191.601562 132.75 C 193.867188 127.117188 205.015625 127.867188 225.050781 135 C 244.917969 142.035156 255.832031 141.714844 257.800781 134.050781 C 259.734375 126.417969 256.734375 117.464844 248.800781 107.199219 C 243.199219 100.933594 237.101562 92.75 230.5 82.648438 C 223.867188 72.550781 221.300781 61.234375 222.800781 48.699219 C 224.332031 36.167969 234.464844 23.082031 253.199219 9.449219 C 252.566406 9.582031 250.199219 12.714844 246.101562 18.851562 C 242 24.949219 239.898438 33.167969 239.800781 43.5 C 239.699219 53.832031 245.351562 65.382812 256.75 78.148438 C 269.25 91.082031 278.648438 103.566406 284.949219 115.601562 C 291.25 127.632812 291.734375 137.285156 286.398438 144.550781 C 281.101562 151.851562 267.25 154.816406 244.851562 153.449219 C 235.515625 152.949219 231.683594 153.882812 233.351562 156.25 C 235.050781 158.617188 238.398438 161.101562 243.398438 163.699219 C 248.433594 166.332031 251.265625 167.75 251.898438 167.949219 "/>
    <path style="stroke:none;fill-rule:evenodd;fill:rgb(23.137255%,69.803922%,47.843137%);fill-opacity:1" d="M 242.398438 132.300781 C 242.765625 132.398438 243.765625 131.515625 245.398438 129.648438 C 247.066406 127.816406 247.015625 124.417969 245.25 119.449219 C 243.515625 114.484375 237.785156 107.382812 228.050781 98.148438 C 218.417969 88.484375 213.550781 78.535156 213.449219 68.300781 C 213.351562 58.066406 214.949219 49.398438 218.25 42.300781 C 221.515625 35.167969 223.417969 31.449219 223.949219 31.148438 C 223.183594 31.449219 219.984375 35.933594 214.351562 44.601562 C 208.714844 53.265625 205.117188 64.398438 203.550781 78 C 202.015625 91.601562 206.984375 105.933594 218.449219 121 C 225.882812 129.265625 231.714844 133.367188 235.949219 133.300781 C 240.148438 133.265625 242.300781 132.933594 242.398438 132.300781 "/>
    <path style="stroke:none;fill-rule:evenodd;fill:rgb(23.137255%,69.803922%,47.843137%);fill-opacity:1" d="M 207.699219 125.398438 C 208.199219 125.667969 208.882812 125.082031 209.75 123.648438 C 210.617188 122.214844 208.648438 118.464844 203.851562 112.398438 C 198.550781 104.933594 196.285156 97.714844 197.050781 90.75 C 197.785156 83.75 198.417969 80 198.949219 79.5 C 197.984375 80.265625 196.050781 85.300781 193.148438 94.601562 C 190.25 103.867188 192.117188 112.734375 198.75 121.199219 C 204.183594 125.066406 207.167969 126.464844 207.699219 125.398438 "/>
  </g>
  <g id="surface4">
    <text style="fill:rgb(0,42,70)" font-family="Albertus Medium" font-size="50" transform="matrix(1,0,0,1,54.55,220.75)" xml:space="preserve"><![CDATA[andreia salustiano]]></text>
    <text style="fill:rgb(0,42,70)" font-family="Helvetica" font-size="25" transform="matrix(1,0,0,1,137.75,256.25)" xml:space="preserve"><![CDATA[personal organizer]]></text>
  </g>
</svg>