<?xml version="1.0" standalone="no"?>
<!DOCTYPE svg PUBLIC "-//W3C//DTD SVG 20010904//EN"
 "http://www.w3.org/TR/2001/REC-SVG-20010904/DTD/svg10.dtd">
<svg version="1.0" xmlns="http://www.w3.org/2000/svg"
 width="2667.000000pt" height="1611.000000pt" viewBox="0 0 2667.000000 1611.000000"
 preserveAspectRatio="xMidYMid meet">

<g transform="translate(0.000000,1611.000000) scale(0.100000,-0.100000)"
fill="#000000" stroke="none">
<path d="M7005 5915 c-152 -32 -199 -46 -197 -56 2 -8 13 -48 24 -89 16 -58
22 -118 25 -259 l6 -184 -24 7 c-13 4 -65 10 -115 13 -288 18 -555 -148 -698
-434 -130 -261 -135 -627 -10 -840 63 -109 192 -204 324 -238 81 -21 218 -24
288 -6 48 12 61 22 140 110 l87 98 3 -94 3 -93 178 0 177 0 -25 73 -26 72 -3
825 c-3 830 1 950 33 1074 9 32 14 60 13 61 -2 1 -93 -17 -203 -40z m-267
-794 c33 -10 74 -28 91 -40 l31 -22 0 -468 0 -467 -52 -26 c-76 -38 -139 -51
-223 -46 -132 9 -234 81 -298 211 -43 88 -58 173 -58 327 0 329 74 486 251
541 50 15 196 10 258 -10z"/>
<path d="M15095 5915 c-153 -32 -199 -45 -197 -56 2 -8 14 -50 25 -94 22 -79
22 -92 22 -920 0 -875 0 -874 -40 -977 -7 -17 7 -18 198 -18 l206 0 -16 38
c-39 94 -42 158 -43 967 0 472 4 816 10 870 10 80 30 177 46 220 3 8 2 14 -2
14 -5 -1 -99 -21 -209 -44z"/>
<path d="M9935 5912 c-133 -83 -152 -276 -38 -384 96 -91 252 -46 303 87 6 16
11 58 11 94 0 77 -28 139 -84 184 -49 40 -144 49 -192 19z"/>
<path d="M19055 5914 c-47 -24 -72 -52 -95 -107 -49 -112 -6 -256 90 -304 81
-42 158 -26 222 45 124 138 37 381 -137 382 -27 0 -63 -7 -80 -16z"/>
<path d="M18152 5382 l-244 -257 101 -3 101 -3 0 -492 c0 -384 3 -507 14 -558
26 -122 71 -183 166 -228 50 -23 66 -25 175 -25 116 1 236 21 259 44 10 10
116 263 112 267 -2 2 -30 -8 -65 -22 -123 -50 -240 -43 -300 19 -64 66 -65 75
-69 559 l-3 437 170 0 171 0 0 100 0 100 -170 0 -170 0 -2 160 -3 159 -243
-257z"/>
<path d="M3500 5331 c-47 -10 -103 -27 -124 -37 -38 -19 -40 -21 -72 -134 -18
-63 -36 -126 -39 -138 l-6 -24 28 20 c95 67 231 108 326 98 168 -17 252 -126
245 -316 l-3 -82 -238 -98 c-274 -113 -312 -134 -385 -207 -157 -157 -146
-398 24 -519 57 -41 115 -60 219 -75 121 -16 144 -10 266 81 58 44 109 80 113
80 3 0 6 -29 6 -65 l0 -65 169 0 168 0 -20 68 c-18 62 -20 108 -27 572 -8 547
-8 554 -66 660 -91 168 -316 237 -584 181z m358 -1058 l2 -202 -41 -11 c-53
-14 -194 -15 -245 -1 -89 24 -138 77 -150 161 -8 53 17 200 41 236 l16 24 187
-2 187 -3 3 -202z"/>
<path d="M5091 5335 c-46 -10 -71 -22 -85 -40 -76 -92 -192 -224 -198 -224 -5
-1 -8 55 -8 124 l0 125 -176 0 -176 0 6 -22 c47 -156 49 -186 53 -678 5 -495
-1 -614 -36 -716 l-18 -54 205 0 c190 0 204 1 197 18 -4 9 -16 51 -27 92 -19
69 -21 111 -25 547 l-5 471 38 20 c240 121 435 92 484 -73 8 -29 10 -164 8
-485 -4 -450 -6 -477 -43 -572 -7 -17 6 -18 189 -18 108 0 196 3 196 8 0 4 -8
30 -17 57 -14 43 -17 125 -23 565 -6 442 -10 523 -25 574 -37 131 -103 214
-209 262 -74 33 -205 42 -305 19z"/>
<path d="M8123 5334 c-61 -15 -62 -16 -175 -142 l-113 -127 -3 128 -3 127
-178 0 -179 0 18 -71 c38 -146 42 -226 38 -749 -4 -514 -6 -535 -43 -632 -7
-17 7 -18 198 -18 l206 0 -16 38 c-36 87 -42 174 -43 643 l0 456 88 35 c156
64 260 68 360 13 30 -17 44 -20 47 -12 6 17 55 279 55 293 0 32 -150 43 -257
18z"/>
<path d="M8931 5334 c-290 -78 -485 -421 -468 -824 6 -146 22 -214 79 -330 33
-69 58 -101 127 -170 144 -143 270 -192 491 -193 122 0 262 21 284 43 9 9 116
263 112 267 -1 1 -24 -9 -51 -22 -65 -30 -153 -53 -241 -61 -184 -17 -336 70
-419 241 -33 66 -75 205 -75 247 0 17 19 18 411 18 l412 0 -7 143 c-11 230
-47 359 -129 469 -46 61 -101 109 -159 139 -91 47 -260 62 -367 33z m198 -195
c126 -27 195 -133 215 -331 l6 -58 -291 0 -292 0 7 55 c20 171 107 299 223
331 61 16 71 16 132 3z"/>
<path d="M10820 5331 c-47 -10 -103 -27 -124 -37 -38 -19 -40 -21 -72 -134
-18 -63 -36 -126 -39 -138 l-6 -24 28 20 c95 67 231 108 326 98 78 -8 134 -34
178 -83 50 -55 63 -101 64 -216 l0 -99 -237 -97 c-272 -113 -313 -135 -386
-208 -97 -96 -133 -226 -97 -348 42 -146 144 -219 339 -245 48 -7 104 -9 124
-5 24 4 76 35 143 86 58 43 109 79 113 79 3 0 6 -29 6 -65 l0 -65 170 0 169 0
-15 42 c-26 75 -34 215 -34 633 0 452 -5 499 -60 612 -88 178 -313 252 -590
194z m358 -1058 l2 -202 -37 -10 c-48 -14 -207 -14 -254 -1 -87 24 -137 83
-146 172 -6 60 18 188 42 225 l16 23 187 -2 187 -3 3 -202z"/>
<path d="M12964 5335 c-143 -31 -268 -124 -326 -243 -31 -62 -33 -74 -32 -162
1 -186 50 -256 360 -510 43 -36 94 -88 112 -115 31 -46 34 -55 30 -111 -7
-112 -76 -169 -203 -168 -94 0 -179 41 -269 128 l-66 63 0 -172 0 -172 79 -21
c149 -41 323 -49 436 -20 204 52 337 236 322 445 -10 152 -72 241 -301 432
-149 124 -188 171 -201 243 -23 123 106 216 257 188 69 -13 123 -42 176 -93
l42 -41 0 141 0 141 -47 20 c-103 43 -247 54 -369 27z"/>
<path d="M13957 5334 c-38 -8 -92 -24 -121 -35 l-52 -19 -37 -131 c-21 -73
-36 -134 -33 -136 2 -2 26 10 54 27 201 123 429 95 506 -63 25 -49 26 -62 24
-157 l-3 -104 -235 -97 c-270 -112 -317 -137 -387 -212 -84 -89 -98 -124 -98
-247 0 -95 3 -110 27 -156 62 -119 195 -184 381 -187 l92 -2 110 83 110 83 3
-65 3 -66 169 0 c94 0 170 3 170 8 0 4 -8 30 -17 57 -14 43 -18 123 -23 555
-6 422 -10 514 -24 563 -48 172 -147 267 -315 303 -84 17 -216 17 -304 -2z
m343 -1059 c0 -162 -3 -207 -13 -211 -29 -11 -155 -19 -214 -13 -137 13 -203
81 -203 208 0 65 20 163 40 202 10 18 24 19 200 19 l190 0 0 -205z"/>
<path d="M17364 5336 c-142 -32 -269 -128 -327 -245 -29 -60 -32 -73 -31 -161
1 -187 44 -248 363 -513 105 -87 141 -142 141 -214 0 -95 -52 -154 -153 -175
-103 -22 -224 28 -333 137 l-54 54 0 -173 0 -173 63 -16 c125 -33 164 -39 282
-40 90 -1 135 3 180 17 203 61 325 234 313 443 -9 149 -74 243 -303 433 -148
123 -187 170 -200 242 -10 52 9 101 56 142 21 20 41 36 43 36 2 0 27 5 57 10
38 7 70 7 109 -1 72 -15 103 -31 162 -87 l49 -45 -3 143 -3 144 -70 25 c-87
30 -248 38 -341 17z"/>
<path d="M19947 5334 c-38 -8 -92 -24 -121 -35 l-52 -19 -37 -131 c-21 -73
-36 -134 -33 -136 2 -2 26 10 54 27 83 51 157 72 252 73 137 2 224 -49 264
-154 13 -33 16 -69 14 -143 l-3 -99 -230 -97 c-126 -53 -250 -106 -275 -119
-61 -32 -151 -121 -186 -184 -27 -48 -29 -60 -29 -157 0 -95 3 -110 27 -156
62 -119 197 -185 382 -188 l91 -1 110 83 110 84 3 -66 3 -66 169 0 c94 0 170
3 170 8 0 4 -8 30 -17 57 -14 43 -17 124 -23 555 -6 423 -10 514 -23 563 -49
170 -144 263 -309 302 -79 18 -222 18 -311 -1z m341 -1061 l-3 -207 -30 -8
c-54 -15 -210 -11 -263 6 -58 20 -106 64 -123 113 -23 71 7 271 44 295 7 4 94
8 195 8 l182 0 -2 -207z"/>
<path d="M21560 5344 c-91 -18 -95 -21 -206 -151 l-109 -126 -3 126 -3 127
-177 0 -178 0 23 -91 c32 -128 43 -295 43 -653 0 -383 -12 -568 -39 -656 -12
-36 -21 -66 -21 -67 0 -2 92 -3 203 -3 l204 0 -19 56 c-32 95 -37 185 -38 640
l0 441 89 36 c106 43 187 58 258 47 94 -15 151 -68 172 -160 14 -60 14 -733 0
-855 -5 -52 -19 -120 -29 -150 l-19 -55 201 0 c187 0 200 1 193 18 -35 91 -38
126 -45 637 -8 553 -8 559 -66 665 -61 113 -166 170 -319 175 -49 2 -101 1
-115 -1z"/>
<path d="M22885 5335 c-263 -58 -469 -267 -540 -549 -45 -178 -41 -352 10
-514 54 -169 177 -317 325 -391 149 -74 304 -87 480 -40 239 64 434 281 502
557 30 121 29 333 -1 445 -47 179 -184 360 -328 435 -127 67 -303 89 -448 57z
m169 -225 c137 -52 253 -192 301 -365 25 -89 31 -292 11 -385 -24 -112 -74
-207 -147 -274 -33 -31 -72 -59 -87 -63 -40 -10 -145 12 -215 44 -121 57 -212
170 -264 328 -24 73 -27 94 -27 240 -1 149 1 165 26 237 46 130 114 219 199
260 36 18 120 9 203 -22z"/>
<path d="M9820 5314 c0 -3 9 -40 20 -83 33 -131 40 -242 40 -671 0 -441 -7
-560 -39 -652 l-20 -58 205 0 c112 0 204 1 204 3 0 1 -9 29 -21 61 -33 96 -41
263 -36 761 4 486 3 469 52 623 l7 22 -206 0 c-113 0 -206 -3 -206 -6z"/>
<path d="M15534 5302 c3 -9 15 -58 27 -107 20 -83 22 -128 29 -590 6 -485 7
-502 29 -562 28 -78 94 -153 164 -187 29 -15 88 -31 133 -37 69 -10 96 -9 175
6 l94 17 115 126 115 125 3 -121 3 -122 169 0 169 0 -16 38 c-37 89 -42 172
-42 687 -1 509 4 593 38 690 l19 55 -207 0 -208 0 25 -97 26 -98 0 -485 1
-485 -80 -28 c-155 -56 -303 -47 -368 21 -57 60 -61 81 -65 397 -5 382 8 607
40 703 l24 72 -208 0 c-195 0 -209 -1 -204 -18z"/>
<path d="M18957 5223 c29 -120 40 -280 42 -623 2 -353 -12 -597 -38 -680 -12
-36 -21 -66 -21 -67 0 -2 92 -3 203 -3 l204 0 -18 53 c-35 103 -39 175 -39
682 1 517 6 598 44 689 9 21 16 40 16 42 0 2 -94 4 -209 4 l-208 0 24 -97z"/>
<path d="M12762 2373 l3 -498 58 -3 57 -3 0 501 0 500 -60 0 -60 0 2 -497z"/>
<path d="M17010 2800 l0 -70 60 0 60 0 0 70 0 70 -60 0 -60 0 0 -70z"/>
<path d="M8000 2611 c-49 -15 -89 -41 -119 -78 l-31 -38 0 53 0 52 -55 0 -55
0 0 -505 0 -505 60 0 60 0 0 175 0 175 45 -34 c151 -116 380 -29 441 167 25
80 30 229 10 307 -19 75 -70 154 -120 188 -65 44 -169 63 -236 43z m140 -123
c59 -30 89 -84 99 -178 23 -219 -49 -350 -193 -350 -69 0 -126 36 -159 100
-28 53 -28 59 -24 175 4 127 18 178 60 224 50 54 142 67 217 29z"/>
<path d="M8730 2607 c-132 -37 -216 -145 -241 -308 -26 -179 40 -346 162 -409
88 -46 239 -46 329 0 64 32 119 104 144 188 7 21 5 22 -51 22 l-59 0 -18 -40
c-50 -114 -254 -136 -331 -36 -20 26 -55 127 -55 158 0 4 120 8 266 8 l267 0
-5 89 c-9 148 -79 266 -187 314 -56 25 -160 31 -221 14z m206 -132 c39 -30 68
-86 77 -147 l6 -38 -205 0 -204 0 6 28 c29 134 103 197 222 189 48 -4 70 -11
98 -32z"/>
<path d="M9563 2609 c-33 -10 -95 -64 -125 -109 -17 -25 -17 -24 -17 38 l-1
62 -55 0 -55 0 0 -365 0 -365 60 0 60 0 0 223 c0 122 5 239 10 259 22 77 102
137 183 138 l38 0 -3 63 c-3 61 -3 62 -33 64 -16 1 -45 -3 -62 -8z"/>
<path d="M9897 2606 c-55 -15 -114 -59 -140 -104 -30 -51 -34 -132 -8 -185 28
-59 83 -87 240 -126 146 -36 172 -48 188 -83 11 -21 11 -33 1 -64 -20 -58 -56
-78 -147 -82 -126 -6 -175 23 -205 121 -4 13 -17 17 -62 17 l-57 0 7 -41 c19
-118 91 -180 230 -199 140 -20 264 18 321 98 24 35 30 55 33 111 8 131 -44
179 -243 227 -115 27 -187 54 -200 74 -12 19 -8 79 6 96 24 30 71 46 135 46
83 0 132 -24 159 -80 20 -41 21 -42 72 -42 48 0 53 2 53 23 -1 63 -65 147
-139 180 -56 25 -179 32 -244 13z"/>
<path d="M10650 2607 c-94 -26 -163 -88 -209 -187 -24 -50 -26 -66 -26 -185 0
-114 3 -136 23 -179 36 -80 85 -132 158 -167 55 -27 77 -32 137 -33 106 0 169
25 238 93 66 66 96 137 105 244 20 237 -111 413 -315 423 -36 2 -86 -2 -111
-9z m181 -113 c81 -41 124 -145 117 -284 -5 -103 -31 -165 -91 -213 -31 -26
-49 -32 -102 -35 -56 -4 -70 -1 -109 22 -55 32 -90 88 -106 171 -25 121 13
266 84 320 57 43 143 51 207 19z"/>
<path d="M11494 2610 c-43 -10 -98 -45 -128 -81 -14 -16 -27 -29 -30 -29 -3 0
-6 23 -6 50 l0 50 -55 0 -55 0 0 -365 0 -365 59 0 59 0 4 243 3 242 31 55 c66
116 216 135 288 37 20 -27 21 -44 24 -303 l3 -274 60 0 59 0 0 273 c0 315 -6
349 -68 410 -59 57 -155 80 -248 57z"/>
<path d="M12173 2606 c-82 -21 -131 -60 -164 -131 -10 -22 -19 -52 -19 -67 0
-27 2 -28 53 -28 l54 0 12 39 c15 51 59 88 116 97 119 17 205 -32 205 -118 0
-68 -16 -77 -175 -99 -75 -10 -155 -27 -178 -37 -129 -57 -168 -232 -76 -337
82 -93 279 -92 389 3 24 20 45 32 47 27 11 -32 47 -77 69 -85 33 -13 90 -13
115 0 14 8 19 21 19 50 0 38 -1 39 -37 42 l-38 3 -6 245 c-6 266 -10 290 -65
342 -16 15 -47 34 -69 44 -52 22 -186 27 -252 10z m242 -545 c-55 -108 -262
-145 -315 -58 -22 35 -26 97 -10 128 18 32 82 57 191 75 56 9 112 19 123 24
20 7 21 4 24 -66 2 -51 -2 -82 -13 -103z"/>
<path d="M13660 2607 c-171 -48 -269 -230 -239 -442 26 -191 152 -309 329
-309 179 0 303 116 331 309 13 88 1 190 -31 262 -27 61 -102 137 -161 163 -63
26 -168 34 -229 17z m185 -116 c16 -9 44 -36 62 -59 76 -100 68 -320 -16 -416
-49 -56 -159 -73 -232 -36 -139 72 -160 378 -33 490 32 27 44 33 99 43 33 6
88 -4 120 -22z"/>
<path d="M14485 2601 c-39 -18 -76 -52 -108 -101 -17 -24 -17 -23 -17 38 l0
62 -55 0 -55 0 0 -365 0 -366 58 3 57 3 5 240 c5 257 8 272 62 322 32 30 90
53 133 53 l36 0 -3 63 -3 62 -35 3 c-19 1 -53 -6 -75 -17z"/>
<path d="M14864 2602 c-63 -22 -99 -50 -142 -110 -51 -72 -65 -135 -60 -266 6
-136 30 -208 95 -277 101 -108 259 -127 368 -43 l45 34 0 -38 c0 -51 -22 -123
-50 -162 -31 -43 -92 -70 -160 -70 -75 0 -120 24 -145 77 l-20 42 -57 1 c-66
0 -71 -9 -42 -78 38 -91 111 -134 240 -140 166 -8 262 39 317 156 l32 67 3
403 3 402 -55 0 -56 0 0 -51 0 -51 -43 44 c-72 74 -170 95 -273 60z m193 -111
c77 -35 116 -125 117 -271 0 -99 -14 -148 -57 -197 -82 -93 -232 -82 -292 22
-68 117 -54 350 26 421 51 46 137 56 206 25z"/>
<path d="M15641 2605 c-89 -25 -148 -80 -170 -160 -17 -63 -16 -65 42 -65 l53
0 21 50 c18 43 28 54 69 71 93 42 220 7 244 -66 15 -44 4 -92 -22 -106 -12 -6
-82 -20 -156 -30 -199 -28 -268 -70 -291 -180 -29 -132 40 -235 172 -259 95
-18 185 6 269 72 l37 29 15 -35 c23 -54 91 -79 164 -60 18 5 22 13 22 50 0 42
0 43 -37 46 l-38 3 -5 250 c-5 244 -6 251 -30 295 -37 65 -110 101 -221 106
-56 3 -102 -1 -138 -11z m264 -493 c-13 -85 -105 -152 -213 -155 -70 -2 -105
14 -127 58 -31 67 -13 124 49 155 23 10 88 27 146 36 58 9 114 20 125 24 18 7
20 3 23 -34 2 -22 1 -60 -3 -84z"/>
<path d="M16510 2611 c-48 -15 -95 -44 -127 -79 l-33 -36 0 53 0 52 -57 -3
-58 -3 0 -360 0 -360 58 -3 57 -3 0 188 c1 286 16 354 94 417 33 27 45 31 100
31 70 0 107 -15 133 -54 16 -23 19 -60 23 -301 l5 -275 58 -3 57 -3 0 282 c0
316 -4 343 -62 401 -56 56 -169 83 -248 59z"/>
<path d="M18245 2614 c-182 -46 -272 -189 -263 -418 3 -84 9 -111 33 -164 54
-120 151 -177 300 -176 133 2 222 52 274 155 43 86 42 89 -28 89 -53 0 -59 -2
-65 -23 -25 -99 -180 -150 -287 -94 -51 27 -88 90 -96 162 l-6 45 262 0 c222
0 262 2 267 15 11 27 -16 177 -40 230 -51 112 -143 175 -264 181 -37 1 -76 1
-87 -2z m142 -115 c59 -22 106 -90 119 -168 l7 -41 -203 0 -203 0 6 41 c8 61
54 128 106 156 48 25 120 31 168 12z"/>
<path d="M19032 2594 c-30 -15 -64 -42 -81 -66 l-30 -40 -3 53 -3 54 -57 3
-58 3 0 -366 0 -365 59 0 59 0 4 238 c3 220 5 240 24 277 12 22 31 48 42 58
26 24 88 46 130 47 l32 0 0 65 0 65 -33 0 c-18 0 -56 -12 -85 -26z"/>
<path d="M17010 2235 l0 -365 60 0 60 0 0 365 0 365 -60 0 -60 0 0 -365z"/>
<path d="M17300 2550 l0 -50 200 -2 201 -3 -215 -260 -215 -260 -1 -52 0 -53
300 0 300 0 0 50 0 50 -221 2 -220 3 215 262 216 262 0 50 0 51 -280 0 -280 0
0 -50z"/>
</g>
</svg>
